# xmcd
#
# Track frame offsets:
#	150
#	20196
#	38334
#	58665
#	80789
#	105843
#	130480
#	151283
#	173320
#	189426
#	211032
#	229486
#	252269
#	270589
#	292099
#	311083
#	318763
#	341112
#
# Disc length: 4781 seconds
#
# Revision: 0
# Processed by: cddbd v1.5PL3 Copyright (c) Steve Scherf et al.
# Submitted via: dBpowerAMP V4.0
#
DISCID=f912ab12
DTITLE=Mary J Blige - No more drama
DYEAR=1900
DGENRE=R&B
TTITLE0=Mary J. Blige - Love
TTITLE1=Mary J. Blige - Family Affair
TTITLE2=Mary J. Blige - Steal away
TTITLE3=Mary J. Blige - He think I don't know
TTITLE4=Mary J. Blige - Pms
TTITLE5=Mary J. Blige - No more drama
TTITLE6=Mary J. Blige - Rainy dayz
TTITLE7=Mary J. Blige - Where I've been
TTITLE8=Mary J. Blige - Beautiful day
TTITLE9=Mary J. Blige - Dance for me
TTITLE10=Mary J. Blige - No more drama (remix)
TTITLE11=Mary J. Blige - FLying away
TTITLE12=Mary J. Blige - Never been
TTITLE13=Mary J. Blige - 2 U
TTITLE14=Mary J. Blige - In the meantime
TTITLE15=Mary J. Blige - Forever no more
TTITLE16=Mary J. Blige - Testimony
TTITLE17=Mary J. Blige - Girl from yesterday
EXTD=
EXTT0=
EXTT1=
EXTT2=
EXTT3=
EXTT4=
EXTT5=
EXTT6=
EXTT7=
EXTT8=
EXTT9=
EXTT10=
EXTT11=
EXTT12=
EXTT13=
EXTT14=
EXTT15=
EXTT16=
EXTT17=
PLAYORDER=
